<?xml version="1.0" encoding="UTF-8"?>
<svg width="83px" height="73px" viewBox="0 0 83 73" version="1.1" xmlns="http://www.w3.org/2000/svg" xmlns:xlink="http://www.w3.org/1999/xlink">
    <!-- Generator: Sketch 51.3 (57544) - http://www.bohemiancoding.com/sketch -->
    <title>icon</title>
    <desc>Created with Sketch.</desc>
    <defs>
        <polygon id="path-1" points="0.9231 0.7233 45.527 0.7233 45.527 27.4543 0.9231 27.4543"></polygon>
        <polygon id="path-3" points="0 0.9862 6.6096 0.9862 6.6096 2.0422 0 2.0422"></polygon>
    </defs>
    <g id="Page-1" stroke="none" stroke-width="1" fill="none" fill-rule="evenodd">
        <g id="icon">
            <path d="M72.1531,54.6474 L80.6501,58.1674 L81.5071,56.0994 L73.0151,52.5824 C72.7511,53.2824 72.4621,53.9704 72.1531,54.6474" id="Fill-1" fill="#000000"></path>
            <path d="M71.9968,40.4565 C71.9968,57.3845 58.2738,71.1075 41.3458,71.1075 C24.4178,71.1075 10.6938,57.3845 10.6938,40.4565 C10.6938,23.5285 24.4178,9.8055 41.3458,9.8055 C58.2738,9.8055 71.9968,23.5285 71.9968,40.4565" id="Fill-3" fill="#FFFFFF"></path>
            <path d="M71.9968,40.4565 C71.9968,57.3845 58.2738,71.1075 41.3458,71.1075 C24.4178,71.1075 10.6938,57.3845 10.6938,40.4565 C10.6938,23.5285 24.4178,9.8055 41.3458,9.8055 C58.2738,9.8055 71.9968,23.5285 71.9968,40.4565 Z" id="Stroke-5" stroke="#000000" stroke-width="2"></path>
            <g id="Group-9" opacity="0.171428571" transform="translate(37.000000, 43.107500)">
                <mask id="mask-2" fill="white">
                    <use xlink:href="#path-1"></use>
                </mask>
                <g id="Clip-8"></g>
                <path d="M45.5271,13.8783 C45.5271,21.3763 35.5431,27.4543 23.2251,27.4543 C10.9081,27.4543 0.9231,21.3763 0.9231,13.8783 C0.9231,6.3803 10.9081,0.7233 23.2251,0.7233 C35.5431,0.7233 45.5271,6.3803 45.5271,13.8783" id="Fill-7" fill="#2F0008" style="mix-blend-mode: multiply;" mask="url(#mask-2)"></path>
            </g>
            <path d="M74.3777,41.3549 C74.3777,48.6779 71.0057,53.1419 66.5917,57.4379 C62.3947,61.5249 53.5557,64.5629 46.5917,64.5629 C32.3067,64.5629 18.8667,54.5789 18.8667,40.2929 C18.8667,26.0069 29.7737,15.8999 44.9027,15.8999 C60.3837,17.6689 62.8467,20.1719 67.0917,23.5629 C72.5517,27.9239 74.3777,33.3189 74.3777,41.3549" id="Fill-10" fill="#FFFFFF"></path>
            <path d="M74.3777,41.3549 C74.3777,48.6779 71.0057,53.1419 66.5917,57.4379 C62.3947,61.5249 53.5557,64.5629 46.5917,64.5629 C32.3067,64.5629 18.8667,54.5789 18.8667,40.2929 C18.8667,26.0069 29.7737,15.8999 44.9027,15.8999 C60.3837,17.6689 62.8467,20.1719 67.0917,23.5629 C72.5517,27.9239 74.3777,33.3189 74.3777,41.3549 Z" id="Stroke-12" stroke="#000000" stroke-width="2"></path>
            <g id="Group-17" transform="translate(34.000000, 17.107500)">
                <path d="M0.5437,0.5619 L13.5567,1.7289" id="Fill-14" fill="#FFFFFF"></path>
                <path d="M0.5437,0.5619 L13.5567,1.7289" id="Stroke-16" stroke="#000000" stroke-width="0.952"></path>
            </g>
            <g id="Group-21" transform="translate(28.000000, 20.107500)">
                <path d="M0.4207,0.8666 L11.5187,1.9986" id="Fill-18" fill="#FFFFFF"></path>
                <path d="M0.4207,0.8666 L11.5187,1.9986" id="Stroke-20" stroke="#000000" stroke-width="0.952"></path>
            </g>
            <g id="Group-25" transform="translate(24.000000, 24.107500)">
                <path d="M0.3211,0.8221 L11.0541,1.8511" id="Fill-22" fill="#FFFFFF"></path>
                <path d="M0.3211,0.8221 L11.0541,1.8511" id="Stroke-24" stroke="#000000" stroke-width="0.952"></path>
            </g>
            <g id="Group-29" transform="translate(21.000000, 29.107500)">
                <path d="M0.074,0.7035 L10.874,1.4665" id="Fill-26" fill="#FFFFFF"></path>
                <path d="M0.074,0.7035 L10.874,1.4665" id="Stroke-28" stroke="#000000" stroke-width="0.952"></path>
            </g>
            <g id="Group-33" transform="translate(19.000000, 34.107500)">
                <path d="M0.034,0.8593 L11.356,1.2393" id="Fill-30" fill="#FFFFFF"></path>
                <path d="M0.034,0.8593 L11.356,1.2393" id="Stroke-32" stroke="#000000" stroke-width="0.952"></path>
            </g>
            <g id="Group-37" transform="translate(28.000000, 57.107500)">
                <path d="M0.2908,1.9965 L11.3888,0.8645" id="Fill-34" fill="#FFFFFF"></path>
                <path d="M0.2908,1.9965 L11.3888,0.8645" id="Stroke-36" stroke="#000000" stroke-width="0.952"></path>
            </g>
            <g id="Group-41" transform="translate(24.000000, 54.107500)">
                <path d="M0.1902,1.0409 L10.9242,0.0119" id="Fill-38" fill="#FFFFFF"></path>
                <path d="M0.1902,1.0409 L10.9242,0.0119" id="Stroke-40" stroke="#000000" stroke-width="0.952"></path>
            </g>
            <g id="Group-45" transform="translate(20.000000, 49.107500)">
                <path d="M0.9441,1.1595 L11.7431,0.3965" id="Fill-42" fill="#FFFFFF"></path>
                <path d="M0.9441,1.1595 L11.7431,0.3965" id="Stroke-44" stroke="#000000" stroke-width="0.952"></path>
            </g>
            <g id="Group-49" transform="translate(18.000000, 44.107500)">
                <path d="M0.9041,1.0038 L12.2261,0.6238" id="Fill-46" fill="#FFFFFF"></path>
                <path d="M0.9041,1.0038 L12.2261,0.6238" id="Stroke-48" stroke="#000000" stroke-width="0.952"></path>
            </g>
            <g id="Group-53" transform="translate(18.000000, 40.107500)">
                <path d="M0.867,0.1859 L11.774,0.0139" id="Fill-50" fill="#FFFFFF"></path>
                <path d="M0.867,0.1859 L11.774,0.0139" id="Stroke-52" stroke="#000000" stroke-width="0.952"></path>
            </g>
            <path d="M74.3777,40.0532 C74.3777,52.3702 64.3937,62.3552 52.0757,62.3552 C39.7597,62.3552 29.7737,52.3702 29.7737,40.0532 C29.7737,27.7362 39.7597,18.4432 52.0757,18.4432 C64.3937,18.4432 74.3777,27.7362 74.3777,40.0532" id="Fill-54" fill="#FFFFFF"></path>
            <path d="M74.3777,40.0532 C74.3777,52.3702 64.3937,62.3552 52.0757,62.3552 C39.7597,62.3552 29.7737,52.3702 29.7737,40.0532 C29.7737,27.7362 39.7597,18.4432 52.0757,18.4432 C64.3937,18.4432 74.3777,27.7362 74.3777,40.0532 Z" id="Stroke-56" stroke="#000000" stroke-width="2"></path>
            <path d="M64.407,41.6152 L73.409,41.5472 L73.392,39.3092 L64.386,39.3762 C64.42,40.1252 64.422,40.8702 64.407,41.6152" id="Fill-58" fill="#000000"></path>
            <path d="M40.4285,6.5913 C40.6055,6.5913 40.7795,6.6023 40.9545,6.6053 L40.9365,0.0003 L39.8985,0.0033 L39.9155,6.6043 C40.0875,6.6023 40.2565,6.5913 40.4285,6.5913" id="Fill-60" fill="#000000"></path>
            <path d="M16.8621,16.1591 L12.1331,11.4541 L11.4001,12.1901 L16.1291,16.8941 C16.3701,16.6451 16.6141,16.4001 16.8621,16.1591" id="Fill-62" fill="#000000"></path>
            <path d="M27.9617,8.9731 L25.5337,3.1131 L24.5747,3.5101 L27.0007,9.3671 C27.3177,9.2291 27.6397,9.1011 27.9617,8.9731" id="Fill-64" fill="#000000"></path>
            <path d="M64.7761,16.9433 L69.5541,12.1903 L68.8221,11.4543 L64.0451,16.2063 C64.2931,16.4473 64.5361,16.6943 64.7761,16.9433" id="Fill-66" fill="#000000"></path>
            <path d="M9.3513,27.0356 L3.1803,24.4796 L2.7833,25.4396 L8.9583,27.9966 C9.0863,27.6746 9.2133,27.3526 9.3513,27.0356" id="Fill-68" fill="#000000"></path>
            <path d="M74.2654,40.4287 C74.2654,40.6037 74.2554,40.7767 74.2524,40.9507 L80.8574,40.9337 L80.8554,39.8947 L74.2524,39.9127 C74.2554,40.0857 74.2654,40.2557 74.2654,40.4287" id="Fill-70" fill="#000000"></path>
            <path d="M71.9119,28.0312 L78.1719,25.4392 L77.7729,24.4792 L71.5209,27.0692 C71.6579,27.3862 71.7849,27.7092 71.9119,28.0312" id="Fill-72" fill="#000000"></path>
            <path d="M53.7107,9.3007 L56.1307,3.4607 L55.1707,3.0627 L52.7467,8.9147 C53.0697,9.0407 53.3937,9.1647 53.7107,9.3007" id="Fill-74" fill="#000000"></path>
            <path d="M71.4754,53.8896 L77.4854,56.3786 L77.8824,55.4196 L71.8714,52.9296 C71.7434,53.2516 71.6134,53.5726 71.4754,53.8896" id="Fill-76" fill="#000000"></path>
            <g id="Group-80" transform="translate(0.000000, 39.107500)">
                <mask id="mask-4" fill="white">
                    <use xlink:href="#path-3"></use>
                </mask>
                <g id="Clip-79"></g>
                <path d="M6.5916,1.3212 C6.5916,1.2092 6.5996,1.0982 6.6006,0.9862 L-0.0004,1.0042 L0.0016,2.0422 L6.6096,2.0242 C6.6046,1.7892 6.5916,1.5572 6.5916,1.3212" id="Fill-78" fill="#000000" mask="url(#mask-4)"></path>
            </g>
            <path d="M8.9998,52.9643 L3.0718,55.4193 L3.4698,56.3783 L9.3968,53.9233 C9.2598,53.6073 9.1288,53.2863 8.9998,52.9643" id="Fill-81" fill="#000000"></path>
            <path d="M64.3289,50.9521 C58.5729,57.1351 48.8949,57.4811 42.7129,51.7251" id="Stroke-83" stroke="#000000" stroke-width="1.372"></path>
            <path d="M41.9392,30.1088 C47.6952,23.9258 57.0492,23.9268 63.2322,29.6828" id="Stroke-85" stroke="#000000" stroke-width="1.372"></path>
        </g>
    </g>
</svg>